<svg width="12" height="13" viewBox="0 0 12 13" fill="none" xmlns="http://www.w3.org/2000/svg">
<path d="M6.00002 0.666672C2.78002 0.666672 0.166687 3.28001 0.166687 6.50001C0.166687 9.72001 2.78002 12.3333 6.00002 12.3333C9.22002 12.3333 11.8334 9.72001 11.8334 6.50001C11.8334 3.28001 9.22002 0.666672 6.00002 0.666672ZM6.00002 9.12501C4.54752 9.12501 3.37502 7.95251 3.37502 6.50001C3.37502 5.04751 4.54752 3.87501 6.00002 3.87501C7.45252 3.87501 8.62502 5.04751 8.62502 6.50001C8.62502 7.95251 7.45252 9.12501 6.00002 9.12501ZM6.00002 5.91667C5.67919 5.91667 5.41669 6.17917 5.41669 6.50001C5.41669 6.82084 5.67919 7.08334 6.00002 7.08334C6.32085 7.08334 6.58335 6.82084 6.58335 6.50001C6.58335 6.17917 6.32085 5.91667 6.00002 5.91667Z" fill="white"/>
</svg>
