<svg width="12" height="11" viewBox="0 0 12 11" fill="none" xmlns="http://www.w3.org/2000/svg">
<path d="M1.625 10.75C1.625 10.75 0.75 10.75 0.75 9.875C0.75 9 1.625 6.375 6 6.375C10.375 6.375 11.25 9 11.25 9.875C11.25 10.75 10.375 10.75 10.375 10.75H1.625ZM6 5.5C6.69619 5.5 7.36387 5.22344 7.85616 4.73116C8.34844 4.23887 8.625 3.57119 8.625 2.875C8.625 2.17881 8.34844 1.51113 7.85616 1.01884C7.36387 0.526562 6.69619 0.25 6 0.25C5.30381 0.25 4.63613 0.526562 4.14384 1.01884C3.65156 1.51113 3.375 2.17881 3.375 2.875C3.375 3.57119 3.65156 4.23887 4.14384 4.73116C4.63613 5.22344 5.30381 5.5 6 5.5Z" fill="#FFFEFE"/>
</svg>
