<svg width="12" height="13" viewBox="0 0 12 13" fill="none" xmlns="http://www.w3.org/2000/svg">
<path d="M6.00002 5.85834C5.64419 5.85834 5.35835 6.14417 5.35835 6.5C5.35835 6.85584 5.64419 7.14167 6.00002 7.14167C6.35585 7.14167 6.64169 6.85584 6.64169 6.5C6.64169 6.14417 6.35585 5.85834 6.00002 5.85834ZM6.00002 0.666672C2.78002 0.666672 0.166687 3.28 0.166687 6.5C0.166687 9.72001 2.78002 12.3333 6.00002 12.3333C9.22002 12.3333 11.8334 9.72001 11.8334 6.5C11.8334 3.28 9.22002 0.666672 6.00002 0.666672ZM7.27752 7.7775L2.50002 10L4.72252 5.22251L9.50002 3.00001L7.27752 7.7775Z" fill="white"/>
</svg>
