<svg width="14" height="13" viewBox="0 0 14 13" fill="none" xmlns="http://www.w3.org/2000/svg">
<path d="M12.9404 6.40431L7.309 0.776966C7.26845 0.736339 7.22029 0.704107 7.16727 0.682115C7.11425 0.660124 7.05741 0.648804 7.00001 0.648804C6.94261 0.648804 6.88578 0.660124 6.83276 0.682115C6.77974 0.704107 6.73158 0.736339 6.69103 0.776966L1.05958 6.40431C0.89552 6.56837 0.802551 6.79122 0.802551 7.02365C0.802551 7.50626 1.19493 7.89865 1.67755 7.89865H2.27091V11.9141C2.27091 12.1561 2.46642 12.3516 2.70841 12.3516H6.12501V9.28908H7.65626V12.3516H11.2916C11.5336 12.3516 11.7291 12.1561 11.7291 11.9141V7.89865H12.3225C12.5549 7.89865 12.7777 7.80704 12.9418 7.64161C13.2822 7.29982 13.2822 6.74611 12.9404 6.40431V6.40431Z" fill="#38BACC"/>
</svg>
